PathFileType	4	(X/Y/Z)	/Users/itak/Documents/Research/Walk-IL/dataset/trc/00246_00009.trc
DataRate	CameraRate	NumFrames	NumMarkers	Units	OrigDataRate	OrigDataStartFrame	OrigNumFrames
100.000000	100.000000	4	53	mm	100.000000	523	837
Frame#	Time	RPSI			LPSI			L3			STRN			T10			C7			CLAV			RBAK			LBAK			LSHO			LUPA			LAEL			LAOL			LWTS			LWPS			LFRA			LIFD			LHPS			LHTS			RSHO			RUPA			RAEL			RAOL			RWTS			RWPS			RFRA			RIFD			RHTS			RHPS			RBHD			LFHD			RFHD			LBHD			LHIP			RHIP			RASI			LASI			LKNE			LTHI			LANK			LTIP			LTOE			LMT1			LMT5			LHEE			RKNE			RTHI			RANK			RTIP			RTOE			RMT1			RMT5			RHEE			
		X1	Y1	Z1	X2	Y2	Z2	X3	Y3	Z3	X4	Y4	Z4	X5	Y5	Z5	X6	Y6	Z6	X7	Y7	Z7	X8	Y8	Z8	X9	Y9	Z9	X10	Y10	Z10	X11	Y11	Z11	X12	Y12	Z12	X13	Y13	Z13	X14	Y14	Z14	X15	Y15	Z15	X16	Y16	Z16	X17	Y17	Z17	X18	Y18	Z18	X19	Y19	Z19	X20	Y20	Z20	X21	Y21	Z21	X22	Y22	Z22	X23	Y23	Z23	X24	Y24	Z24	X25	Y25	Z25	X26	Y26	Z26	X27	Y27	Z27	X28	Y28	Z28	X29	Y29	Z29	X30	Y30	Z30	X31	Y31	Z31	X32	Y32	Z32	X33	Y33	Z33	X34	Y34	Z34	X35	Y35	Z35	X36	Y36	Z36	X37	Y37	Z37	X38	Y38	Z38	X39	Y39	Z39	X40	Y40	Z40	X41	Y41	Z41	X42	Y42	Z42	X43	Y43	Z43	X44	Y44	Z44	X45	Y45	Z45	X46	Y46	Z46	X47	Y47	Z47	X48	Y48	Z48	X49	Y49	Z49	X50	Y50	Z50	X51	Y51	Z51	X52	Y52	Z52	X53	Y53	Z53	

524	5.23	378.2206726074219	1006.521911621094	-220.9695434570312	462.298828125	1015.231750488281	-306.8844604492188	425.0431823730469	1093.932983398438	-285.2034301757812	601.0517578125	1282.308715820312	-107.604606628418	418.5512390136719	1221.152221679688	-280.9274291992188	457.9251098632812	1483.289428710938	-237.6486968994141	577.4207763671875	1399.31640625	-122.9591293334961	357.6014099121094	1342.014770507812	-243.760009765625	521.7050170898438	1448.427978515625	-330.9259643554688	625.0390014648438	1452.080078125	-309.6738586425781	656.8934936523438	1335.343383789062	-390.8928833007812	683.8089599609375	1125.494873046875	-403.9056396484375	598.706298828125	1108.900024414062	-420.7550964355469	708.2484741210938	897.5887451171875	-287.4962158203125	748.9545288085938	878.8588256835938	-359.1343994140625	710.6124267578125	1018.898742675781	-393.1588134765625	721.0338134765625	703.3567504882812	-284.0043029785156	760.4609985351562	792.1732177734375	-340.6623840332031	748.8151245117188	797.7368774414062	-273.4670715332031	380.410888671875	1438.216552734375	-78.63179779052734	318.1714172363281	1372.255493164062	-49.50125885009766	265.0117797851562	1095.87548828125	-57.1561393737793	316.1192932128906	1088.88427734375	-137.5473327636719	354.2087707519531	866.1607055664062	14.73426055908203	269.817626953125	864.031494140625	11.02579784393311	263.8145751953125	1027.694213867188	-32.09637832641602	337.3481750488281	672.9647827148438	7.77809476852417	346.9603576660156	741.9149169921875	46.44670104980469	276.1527404785156	753.8671875	36.04722213745117	443.8073120117188	1637.180297851562	-171.2657012939453	653.8428344726562	1690.13720703125	-96.36632537841797	583.802001953125	1684.466186523438	-24.83957672119141	570.501220703125	1652.19189453125	-233.4919891357422	631.7236328125	955.0116577148438	-344.9474487304688	383.0085754394531	973.4551391601562	-74.68297576904297	477.469482421875	1018.278442382812	-41.05004501342773	674.2262573242188	998.3575439453125	-241.3929138183594	577.256591796875	473.5847778320312	-326.7675476074219	610.383544921875	615.9306030273438	-331.9398193359375	308.90087890625	83.08026885986328	-493.232666015625	449.3641967773438	299.140869140625	-422.5930480957031	455.0539855957031	36.8035774230957	-346.3390808105469	381.2020874023438	46.59461975097656	-341.5598449707031	413.3573303222656	31.24026679992676	-451.8415222167969	240.6834106445312	124.323356628418	-473.7398071289062	560.2653198242188	510.2447204589844	-5.000436782836914	462.4460144042969	765.1802978515625	-2.255492448806763	610.3098754882812	29.75200843811035	-68.70545959472656	602.6062622070312	392.4671936035156	-4.917572021484375	766.2601318359375	40.18848037719727	80.59952545166016	768.875732421875	35.04320907592773	9.271240234375	653.1389770507812	33.41939163208008	34.78401947021484	622.68310546875	26.09982872009277	-150.9490203857422	
525	5.24	383.4364318847656	1007.354919433594	-215.1500244140625	467.8039855957031	1015.654846191406	-300.8632202148438	430.3111267089844	1095.116455078125	-279.3491821289062	605.4961547851562	1283.464599609375	-101.6155471801758	424.2792663574219	1222.011352539062	-275.4078674316406	462.6141357421875	1484.21826171875	-232.1911468505859	581.7314453125	1400.449096679688	-117.0432586669922	362.4183044433594	1342.878784179688	-238.6920776367188	527.016845703125	1449.68359375	-325.1378784179688	630.2427978515625	1453.560180664062	-303.3778686523438	662.188720703125	1337.062255859375	-384.9545288085938	687.63720703125	1127.183837890625	-399.6122131347656	602.314208984375	1111.245361328125	-415.9517211914062	711.7184448242188	897.5210571289062	-286.4263305664062	751.2037963867188	879.3812255859375	-358.9536437988281	713.7449951171875	1020.258422851562	-390.5285034179688	722.2770385742188	703.0216064453125	-286.2266845703125	761.9430541992188	792.2842407226562	-341.9885864257812	751.3262939453125	796.9028930664062	-274.5377807617188	384.5753173828125	1439.107055664062	-73.49991607666016	322.2259521484375	1373.07080078125	-44.59336090087891	269.851806640625	1096.450927734375	-52.54443740844727	321.3450927734375	1089.667846679688	-132.6900634765625	360.427734375	867.5121459960938	20.24815368652344	276.1151123046875	864.6549682617188	16.10189247131348	269.0102844238281	1028.182739257812	-27.46903419494629	345.37548828125	674.1997680664062	13.85465526580811	354.1064453125	743.3460693359375	52.3524169921875	283.2497253417969	754.6152954101562	41.50112533569336	448.2345581054688	1638.116333007812	-166.2574310302734	657.2241821289062	1691.033569335938	-88.88296508789062	586.3867797851562	1685.143188476562	-18.18885231018066	575.5147705078125	1653.386596679688	-227.0562591552734	637.9573974609375	955.5060424804688	-337.6866455078125	387.5300598144531	974.6718139648438	-68.78403472900391	481.9753723144531	1019.749877929688	-34.85553359985352	679.4503173828125	999.3424682617188	-234.4301300048828	590.3543701171875	473.0459289550781	-318.4657287597656	621.004150390625	615.8970947265625	-323.744873046875	314.5032348632812	90.37686157226562	-493.01220703125	459.7433776855469	302.4178161621094	-417.3479919433594	455.5596313476562	36.61685180664062	-346.5779113769531	382.6361694335938	48.15862274169922	-341.50244140625	415.7564392089844	32.80480194091797	-451.3352355957031	248.2119598388672	134.3022308349609	-473.170166015625	563.0720825195312	510.0490417480469	-2.077074289321899	466.4836730957031	765.458251953125	3.024579286575317	610.6243896484375	29.99863243103027	-68.68229675292969	604.9459228515625	392.1658935546875	-2.721352577209473	767.026123046875	39.28970718383789	80.55457305908203	769.2858276367188	34.21778869628906	9.186409950256348	653.6104736328125	33.66192626953125	34.78110504150391	622.7764282226562	26.23084259033203	-150.9281005859375	
526	5.25	388.4446411132812	1008.259216308594	-209.3112335205078	473.0537414550781	1016.069274902344	-294.8630676269531	435.3654479980469	1096.242553710938	-273.4226989746094	609.8699340820312	1284.584350585938	-95.68476104736328	429.8242797851562	1222.802001953125	-269.8715515136719	467.18017578125	1485.104125976562	-226.7340545654297	585.97314453125	1401.53955078125	-111.192024230957	367.1318664550781	1343.708740234375	-233.5055236816406	532.1276245117188	1450.849487304688	-319.3966369628906	635.255126953125	1454.96923828125	-297.1775512695312	667.3179931640625	1338.739868164062	-379.1147155761719	691.5794677734375	1128.87841796875	-395.3841247558594	606.0982055664062	1113.548828125	-411.4241943359375	715.1151123046875	897.5632934570312	-285.3611450195312	753.5880126953125	880.0137329101562	-358.6319580078125	717.0308837890625	1021.669677734375	-387.8796081542969	723.4646606445312	702.8746337890625	-288.2518615722656	763.5087890625	792.5327758789062	-343.1015319824219	753.7311401367188	796.2421875	-275.441650390625	388.6868591308594	1439.973999023438	-68.33671569824219	326.2840881347656	1373.877563476562	-39.59412002563477	274.5918273925781	1097.017578125	-47.7946662902832	326.3194885253906	1090.466552734375	-127.76611328125	366.8526611328125	868.9551391601562	25.79854774475098	282.6134948730469	865.25537109375	21.31811332702637	274.1863098144531	1028.645141601562	-22.69561767578125	353.948974609375	675.540771484375	20.07026481628418	361.7007446289062	744.8967895507812	58.35001373291016	290.7574768066406	755.3471069335938	47.11142349243164	452.6350402832031	1639.058715820312	-161.3255310058594	660.54345703125	1691.871948242188	-81.4425048828125	588.9420776367188	1685.753540039062	-11.59854316711426	580.4822998046875	1654.5537109375	-220.6693267822266	643.8834838867188	955.9260864257812	-330.5534362792969	391.94189453125	975.8714599609375	-62.89081954956055	486.3685913085938	1021.10400390625	-28.71016502380371	684.4688110351562	1000.281311035156	-227.6080474853516	603.8560791015625	472.5296020507812	-310.0947875976562	631.8869018554688	615.876708984375	-315.6060485839844	321.0502624511719	98.14437103271484	-492.5789184570312	470.9310302734375	305.6408996582031	-411.7738647460938	456.3623352050781	36.27987670898438	-346.6208190917969	384.4018859863281	49.99372100830078	-341.2976989746094	419.0717468261719	35.34001541137695	-450.8140563964844	256.7877807617188	144.6240692138672	-472.4768981933594	565.4595336914062	509.7939758300781	0.5827051997184753	470.2233276367188	765.6729125976562	8.131875991821289	610.8745727539062	30.18083190917969	-68.71480560302734	606.8551025390625	391.8263244628906	-0.7436530590057373	767.6316528320312	38.68577194213867	80.48157501220703	769.5986328125	33.59604644775391	9.073307991027832	653.9783935546875	33.84505462646484	34.7470588684082	622.8709716796875	26.3150749206543	-150.9558715820312	
527	5.26	393.2631530761719	1009.215942382812	-203.5310516357422	478.0780334472656	1016.467468261719	-288.9471130371094	440.2326049804688	1097.268432617188	-267.4861755371094	614.176025390625	1285.64453125	-89.8135986328125	435.1734924316406	1223.510864257812	-264.3390197753906	471.6179809570312	1485.933837890625	-221.2789154052734	590.1456298828125	1402.565185546875	-105.4070358276367	371.7550354003906	1344.481201171875	-228.2116851806641	537.0226440429688	1451.899658203125	-313.7054138183594	640.0691528320312	1456.283325195312	-291.0897216796875	672.2545776367188	1340.340454101562	-373.391357421875	695.6160888671875	1130.544677734375	-391.2193908691406	610.0324096679688	1115.772338867188	-407.1588745117188	718.4326782226562	897.6796264648438	-284.2852478027344	756.1319580078125	880.7269287109375	-358.143798828125	720.4652709960938	1023.099487304688	-385.1998291015625	724.6543579101562	702.8760375976562	-290.0558471679688	765.2090454101562	792.8883666992188	-343.9673461914062	756.0532836914062	795.7308349609375	-276.145751953125	392.7472839355469	1440.793579101562	-63.14101028442383	330.3401794433594	1374.646850585938	-34.51189804077148	279.2450866699219	1097.546264648438	-42.89383697509766	331.0137023925781	1091.248657226562	-122.77880859375	373.4682006835938	870.4588623046875	31.3846378326416	289.3047485351562	865.8190307617188	26.69844627380371	279.3475952148438	1029.063598632812	-17.75033378601074	362.9927062988281	676.966552734375	26.39519500732422	369.6973876953125	746.5317993164062	64.41854858398438	298.64599609375	756.053466796875	52.88652038574219	457.0016174316406	1639.987182617188	-156.4730682373047	663.803466796875	1692.649047851562	-74.07096099853516	591.4677734375	1686.304077148438	-5.090463638305664	585.3926391601562	1655.668701171875	-214.3436279296875	649.4750366210938	956.24365234375	-323.5842895507812	396.2086791992188	977.0396728515625	-57.0760498046875	490.6075744628906	1022.318359375	-22.65581703186035	689.2889404296875	1001.138427734375	-220.9254913330078	617.6220703125	472.0574035644531	-301.6198425292969	642.9384155273438	615.873291015625	-307.50439453125	328.5768737792969	106.3021469116211	-491.8541259765625	482.8698120117188	308.7463073730469	-405.84228515625	457.6538696289062	35.79182815551758	-346.3123779296875	386.6565551757812	52.19147109985352	-340.8554077148438	423.4613037109375	39.00081253051758	-450.2294006347656	266.3729248046875	155.1377410888672	-471.62158203125	567.5040893554688	509.519775390625	3.08014965057373	473.7073364257812	765.8734741210938	13.04773616790771	611.0606689453125	30.3093204498291	-68.77524566650391	608.420166015625	391.4734497070312	1.09413754940033	768.0985717773438	38.29780578613281	80.39694213867188	769.8362426757812	33.15173721313477	8.941572189331055	654.2451782226562	33.97362899780273	34.70085144042969	622.9547729492188	26.36420249938965	-151.0085754394531	
